<svg width="48" height="48" viewBox="0 0 48 48" fill="none" xmlns="http://www.w3.org/2000/svg">
<path d="M24 48C37.2548 48 48 37.2548 48 24C48 10.7452 37.2548 0 24 0C10.7452 0 0 10.7452 0 24C0 37.2548 10.7452 48 24 48Z" fill="#FFCC00"/>
<path d="M10.7704 20.3945L9.45898 22.4395H16.5406C16.8903 22.4395 16.8903 22.5929 16.7154 22.8996C16.5406 23.2063 16.2346 23.6665 16.0597 23.9732C15.9723 24.1266 15.7974 24.3822 16.3657 24.3822H19.2945C19.2945 24.3822 19.7753 23.6153 20.1688 23.0018C20.6933 22.1327 20.2125 20.3945 18.2891 20.3945H10.7704V20.3945Z" fill="#CC0000"/>
<path d="M8.93359 27.1371L11.5564 22.9961C11.5564 22.9961 14.4415 22.9961 14.7912 22.9961C15.1409 22.9961 15.1409 23.1495 14.966 23.4562C14.7912 23.7629 14.4852 24.2231 14.3103 24.5298C14.2229 24.6832 14.0481 24.9388 14.6163 24.9388H18.9877C18.638 25.5011 17.4577 27.1882 15.3595 27.1882H8.93359V27.1371Z" fill="#CC0000"/>
<path d="M23.9277 24.8906L22.5289 27.14H18.7695L20.1684 24.8906H23.9277Z" fill="#CC0000"/>
<path d="M29.6537 24.3822H20.5176L23.0092 20.3945H26.7686L25.326 22.6951H26.9872L28.4297 20.3945H32.189L29.6537 24.3822Z" fill="#CC0000"/>
<path d="M29.3496 24.8906L27.9508 27.14H24.1914L25.5902 24.8906H29.3496V24.8906Z" fill="#CC0000"/>
<path d="M3.60156 25.7461H9.10945L8.80346 26.2573H3.60156V25.7461Z" fill="#CC0000"/>
<path d="M3.60156 24.8906H9.67772L9.37173 25.3507H3.60156V24.8906Z" fill="#CC0000"/>
<path d="M3.60156 26.6758H8.54117L8.27889 27.1359H3.60156V26.6758Z" fill="#CC0000"/>
<path d="M44.3848 26.2573H38.877L39.1829 25.7461H44.3848V26.2573Z" fill="#CC0000"/>
<mask id="mask0" mask-type="alpha" maskUnits="userSpaceOnUse" x="38" y="26" width="7" height="2">
<path d="M38.3242 27.1714H44.4004V26.6602H38.3242V27.1714Z" fill="white"/>
</mask>
<g mask="url(#mask0)">
<path d="M44.4004 27.1714H38.3242L38.6302 26.6602H44.4004V27.1714Z" fill="#CC0000"/>
</g>
<path d="M39.7533 24.8906H44.3869V25.3507H39.4473L39.7533 24.8906Z" fill="#CC0000"/>
<path d="M37.3485 20.3945L34.8568 24.3822H30.8789L33.3706 20.3945H37.3485Z" fill="#CC0000"/>
<path d="M30.5715 24.8906C30.5715 24.8906 30.3092 25.3507 30.1781 25.5552C29.6972 26.3221 30.1343 27.14 31.6643 27.14H37.653L39.0519 24.8906H30.5715V24.8906Z" fill="#CC0000"/>
</svg>
