<svg width="48" height="48" viewBox="0 0 48 48" fill="none" xmlns="http://www.w3.org/2000/svg">
<circle cx="24" cy="24" r="24" fill="#1B2C5B"/>
<path fill-rule="evenodd" clip-rule="evenodd" d="M35.878 28.1316L35.8346 28.2128L35.7478 28.3143L35.6827 28.4158L35.5525 28.497L35.4441 28.5782L35.2922 28.6391L35.1186 28.7H32.537L32.3851 28.6391L32.2332 28.5782L32.1031 28.497L31.9946 28.4158L31.9078 28.3143L31.8427 28.2128L31.7993 28.1316L28.8271 22.1434L28.762 22.0419L28.697 21.9607L28.6319 21.8592L28.5451 21.7983L28.3932 21.6562L28.198 21.5548L28.0027 21.4939L27.8075 21.4533L27.5905 21.4126L27.3953 21.3924H22.0149L21.8414 21.4126L21.6678 21.4533L21.5376 21.5141L21.4292 21.6157L21.3207 21.7374L21.2773 21.8592L21.2339 22.0216L21.2122 22.184L21.2339 22.3667L21.2773 22.5088L21.3424 22.6509L21.4509 22.7524L21.5593 22.8336L21.6895 22.9148L21.8414 22.9554L22.0149 22.9757H26.0285L26.3105 22.996L26.5709 23.0569L26.8529 23.1584L27.0915 23.2396L27.3302 23.3614L27.5688 23.5035L27.7641 23.6861L27.9593 23.8688L28.1329 24.0718L28.2631 24.3154L28.3932 24.5793L28.48 24.8635L28.5668 25.168L28.5885 25.4928L28.6102 25.8378L28.5885 26.1829L28.5668 26.5077L28.48 26.8122L28.3932 27.0964L28.2631 27.34L28.1112 27.5836L27.9593 27.7865L27.7641 27.9895L27.5688 28.1519L27.3302 28.294L27.0915 28.4158L26.8529 28.5173L26.5709 28.5985L26.3105 28.6594L26.0285 28.7H20.8L20.6482 28.6594L20.518 28.5985L20.3878 28.5173L20.301 28.3955L20.2359 28.2737L20.1925 28.1113L20.1708 27.9083V26.8122L20.1925 26.7716L20.2142 26.7107L20.2576 26.6701L20.2793 26.6498L20.3227 26.6295L20.4312 26.6092H24.8136L24.9871 26.5686L25.1173 26.5077L25.2258 26.4062L25.3342 26.3047L25.3993 26.1829L25.4427 26.0205L25.4644 25.8378L25.4427 25.6551L25.3993 25.4928L25.3342 25.3507L25.2258 25.2492L25.1173 25.168L24.9871 25.1071L24.857 25.0665L24.6834 25.0462H20.4312L20.1925 25.0056L19.9539 24.9853L19.7587 24.9244L19.52 24.8635L19.3247 24.762L19.1512 24.7011L18.9776 24.5996L18.9342 25.0462L18.8692 25.2695L18.8258 25.4928L18.7607 25.6957L18.6956 25.919L18.6088 26.122L18.5003 26.3047L18.4136 26.5077L18.3268 26.6701L18.1966 26.8528L18.0881 27.0152L17.958 27.1776L17.8278 27.3197L17.6759 27.4618L17.5241 27.6038L17.3722 27.7256L17.1986 27.8474L17.0468 27.9692L16.8515 28.0707L16.6563 28.1722L16.461 28.2737L16.2875 28.3549L16.0922 28.4158L15.8753 28.4767L15.6366 28.5376L15.2027 28.6391L14.7254 28.7H8.17357L8.13017 28.6594L8.08679 28.6391L8.06509 28.5985L8.0217 28.5579L8 28.5173V23.1584L8.0217 23.1178L8.06509 23.0569V23.0366L8.13017 22.996L8.17357 22.9757H10.5817L10.7336 23.0163L10.8854 23.0975L10.9939 23.199L11.059 23.3005L11.1241 23.4425L11.1675 23.5847L11.1892 23.747V26.4062L11.2109 26.4671L11.2325 26.5077L11.2542 26.5483L11.2976 26.5686L11.341 26.5889L11.4495 26.6092H13.5322L13.7925 26.5686L14.0312 26.528L14.5085 26.3656L14.7254 26.2641L14.9207 26.122L15.1159 25.9596L15.2895 25.7769L15.4414 25.5943L15.5715 25.3913L15.68 25.1477L15.7668 24.9041L15.8319 24.6199L15.8753 24.3154L15.897 23.9906L15.8753 23.6861L15.8319 23.3817L15.7668 23.1178L15.68 22.8539L15.5715 22.6306L15.4414 22.4073L15.2895 22.2246L15.1159 22.0419L14.9207 21.8998L14.7254 21.7577L14.5085 21.6562L14.2698 21.5548L14.0312 21.4939L13.7925 21.4533L13.5322 21.4126L13.2502 21.3924H8.26034L8.17357 21.3721L8.13017 21.3518L8.06509 21.3315V21.2909L8.0217 21.2503L8 21.2097V19.9917L8.0217 19.8902L8.06509 19.7278L8.15187 19.5858L8.26034 19.5046L8.39051 19.4031L8.54237 19.3422L8.65085 19.3219H14.8556L15.1159 19.3625L15.398 19.4031L15.6366 19.464L15.9187 19.5452L16.1573 19.6263L16.4176 19.7075L16.6563 19.8293L16.8949 19.9511L17.0902 20.0932L17.3071 20.2353L17.4807 20.3774L17.6759 20.5398L17.8495 20.7225L18.0231 20.9255L18.1098 20.7225L18.1966 20.5398L18.3268 20.3774L18.457 20.215L18.5871 20.0729L18.739 19.9511L18.8909 19.8293L19.0644 19.7075L19.238 19.6263L19.4115 19.5452L19.6068 19.464L19.8237 19.4031L20.0407 19.3625L20.2576 19.3219H28.8922L29.0875 19.3422L29.261 19.3828L29.4346 19.4031L29.6298 19.464L29.8034 19.5452L29.9986 19.6061L30.1505 19.7075L30.3024 19.7887L30.4759 19.9308L30.6278 20.0526L30.7797 20.1947L30.9098 20.3571L31.0183 20.5398L31.1268 20.7225L33.6868 26.0205V26.0408L33.7302 26.0814H33.882L33.9254 26.0408L33.9471 26.0205L37.1146 19.4234L37.1797 19.3625L37.2448 19.3219H37.3315H39.8481L39.8915 19.3422L39.9566 19.4031L40 19.464V19.7075L35.878 28.1316Z" fill="white"/>
</svg>
