<svg width="48" height="48" viewBox="0 0 48 48" fill="none" xmlns="http://www.w3.org/2000/svg">
<path d="M24 47.9996C37.2548 47.9996 48 37.2545 48 23.9996C48 10.7448 37.2548 -0.000366211 24 -0.000366211C10.7452 -0.000366211 0 10.7448 0 23.9996C0 37.2545 10.7452 47.9996 24 47.9996Z" fill="#FF6600"/>
<path d="M17.8984 21.2188C19.0395 19.0855 21.3217 17.5971 24.0504 17.6963C26.779 17.5971 29.0612 19.0855 30.2023 21.2188C31.3434 19.0855 33.6255 17.5971 36.255 17.5971C40.224 17.6963 43.2007 20.7723 43.2007 24.5428C43.2007 28.3134 40.1744 31.3893 36.3542 31.3893C33.6255 31.5382 31.3434 30.0498 30.1031 27.8172C29.1108 30.0498 26.6798 31.4389 24.0504 31.4389C21.3217 31.5382 19.0395 30.0498 17.8984 27.9165C16.7573 30.0498 14.376 31.4389 11.7465 31.4389C7.87674 31.4389 4.80078 28.2637 4.80078 24.4932C4.80078 20.7227 8.02558 17.6467 11.8457 17.6467C14.4752 17.5971 16.7573 19.1351 17.8984 21.2188ZM36.255 19.2343C33.4271 19.2343 30.9961 21.6653 30.9961 24.4932C30.9961 27.5196 33.4271 29.9506 36.3542 29.8513C39.2813 29.9506 41.7123 27.5692 41.6131 24.5924C41.7123 21.6653 39.2813 19.2343 36.255 19.2343ZM24.0504 19.2839C21.1232 19.1847 18.6922 21.5661 18.6922 24.4436C18.6922 27.47 21.1232 29.901 24.0504 29.8017C26.9775 29.901 29.4085 27.5196 29.3093 24.5428C29.4085 21.6653 26.9775 19.2343 24.0504 19.2839ZM11.8457 19.2343C8.81938 19.2343 6.38838 21.6653 6.38838 24.4932C6.38838 27.5196 8.81938 29.9506 11.7465 29.8513C14.7729 29.8513 17.1046 27.5692 17.1046 24.4932C17.1046 21.6653 14.624 19.2343 11.8457 19.2343Z" fill="white"/>
<path d="M33.2793 21.4135H39.5304L39.4312 23.1499H37.794H37.3971V27.8135L35.2142 27.7143V23.0507L34.9661 23.1499L33.2793 23.0507V21.4135Z" fill="white"/>
<path d="M8.57227 21.4135H14.873V23.0507L13.1366 23.1499L12.8389 23.0507V27.7143L10.7552 27.8135V23.1499H10.3087L8.57227 23.0507V21.4135Z" fill="white"/>
<path d="M22.9091 27.7119V24.4871V24.6856L25.1913 27.7119H27.1758V21.4112H25.1913V24.6856V24.4871L22.8099 21.312L20.875 21.4112V27.7119H22.9091Z" fill="white"/>
</svg>
