<svg width="48" height="48" viewBox="0 0 48 48" fill="none" xmlns="http://www.w3.org/2000/svg">
<circle cx="24" cy="24" r="24" fill="#301506"/>
<path fill-rule="evenodd" clip-rule="evenodd" d="M14.6816 19.4221L14.7665 29.0571L16.9312 31.7311L23.4255 35.1692L31.4052 31.2642L33.0606 27.3168L32.8908 14.5407L26.8636 14.3709L20.5817 15.3896L14.8517 18.7003L14.6816 19.4221Z" fill="#301506"/>
<path d="M23.9797 12.4594C20.1969 12.4594 16.8973 13.1918 14.1719 14.636V26.1823C14.1719 28.6118 15.0847 30.6435 16.8113 32.0588C18.4144 33.3738 23.3723 35.5409 23.9799 35.8041C24.556 35.5534 29.5727 33.3528 31.1504 32.0588C32.876 30.6442 33.7891 28.612 33.7891 26.1823V14.636C31.0633 13.1916 27.7637 12.4592 23.9793 12.4592L23.9797 12.4594ZM29.5809 14.6951C30.709 14.7099 31.8166 14.7795 32.8874 14.879V26.1822C32.8874 28.3543 32.0992 30.1089 30.5784 31.3616C29.2198 32.4804 25.123 34.3159 23.9799 34.8198C22.8214 34.3091 18.7144 32.4504 17.3802 31.362C15.8684 30.1308 15.0727 28.3346 15.0727 26.1827V19.578C19.4171 15.5939 24.6925 14.6314 29.5806 14.6954L29.5809 14.6951ZM24.2354 19.9583C23.3047 19.9583 22.5537 20.1664 21.9354 20.5654V31.6864H23.6425V28.0936C23.8129 28.1438 24.0601 28.1908 24.4104 28.1908C26.304 28.1908 27.3923 26.4838 27.3923 23.9915C27.3923 21.504 26.2717 19.9583 24.2355 19.9583L24.2354 19.9583ZM30.0683 19.9583C28.9456 19.9908 27.7716 20.8041 27.7787 22.1828C27.7816 23.0905 28.0333 23.7694 29.4402 24.5949C30.191 25.0356 30.4935 25.3261 30.5064 25.8616C30.5208 26.4569 30.1095 26.8158 29.4835 26.8134C28.939 26.8091 28.2879 26.5069 27.852 26.1188V27.6897C28.3865 28.0084 29.0535 28.2191 29.7273 28.2191C31.4137 28.2191 32.1667 27.0279 32.1992 25.9363C32.2313 24.9414 31.9564 24.1886 30.5303 23.3507C29.8939 22.9774 29.3912 22.7321 29.408 22.1109C29.4248 21.5046 29.9281 21.2916 30.4115 21.2959C31.0077 21.3012 31.5845 21.6314 31.9405 21.9966V20.5131C31.6405 20.2819 31.0052 19.9296 30.0682 19.9583L30.0683 19.9583ZM15.9444 20.131V25.4953C15.9444 27.3037 16.7998 28.2192 18.4881 28.2192C19.5328 28.2192 20.4078 27.9775 21.0596 27.5343V20.1311H19.3562V26.5631C19.1706 26.6903 18.8952 26.7717 18.5487 26.7717C17.7668 26.7717 17.6499 26.0546 17.6499 25.5708V20.1312H15.9444L15.9444 20.131ZM24.2469 21.3326C25.237 21.3326 25.6474 22.1231 25.6474 24.0349C25.6474 25.9003 25.178 26.8015 24.1961 26.8015C23.9649 26.8015 23.764 26.7442 23.642 26.6983V21.4562C23.7803 21.3872 24.0153 21.3328 24.2469 21.3328V21.3326Z" fill="#FAB80A"/>
</svg>
